<svg xmlns="http://www.w3.org/2000/svg" xmlns:xlink="http://www.w3.org/1999/xlink" width="500" zoomAndPan="magnify" viewBox="0 0 375 374.999991" height="500" preserveAspectRatio="xMidYMid meet" version="1.0"><defs><g/><clipPath id="576dccea54"><path d="M 176 165 L 188 165 L 188 170.996094 L 176 170.996094 Z M 176 165 " clip-rule="nonzero"/></clipPath><clipPath id="b2cb0917d5"><path d="M 149.695312 73.496094 L 212.695312 73.496094 L 212.695312 146 L 149.695312 146 Z M 149.695312 73.496094 " clip-rule="nonzero"/></clipPath><clipPath id="46fa044e25"><path d="M 131 113.753906 L 134 113.753906 L 134 121 L 131 121 Z M 131 113.753906 " clip-rule="nonzero"/></clipPath><clipPath id="c59aefb2d2"><path d="M 131 124 L 134 124 L 134 131.003906 L 131 131.003906 Z M 131 124 " clip-rule="nonzero"/></clipPath><clipPath id="12da646157"><path d="M 134 121 L 141.304688 121 L 141.304688 124 L 134 124 Z M 134 121 " clip-rule="nonzero"/></clipPath><clipPath id="7c1f3ec996"><path d="M 124.054688 121 L 131 121 L 131 124 L 124.054688 124 Z M 124.054688 121 " clip-rule="nonzero"/></clipPath><clipPath id="0eb0ec03b8"><path d="M 228 113.753906 L 231 113.753906 L 231 121 L 228 121 Z M 228 113.753906 " clip-rule="nonzero"/></clipPath><clipPath id="5e59cb2a80"><path d="M 228 124 L 231 124 L 231 131.003906 L 228 131.003906 Z M 228 124 " clip-rule="nonzero"/></clipPath><clipPath id="568bc8287f"><path d="M 231 121 L 238.332031 121 L 238.332031 124 L 231 124 Z M 231 121 " clip-rule="nonzero"/></clipPath><clipPath id="e7db60899f"><path d="M 221.082031 121 L 228 121 L 228 124 L 221.082031 124 Z M 221.082031 121 " clip-rule="nonzero"/></clipPath><clipPath id="83ddfb44ee"><path d="M 180 51.34375 L 182 51.34375 L 182 59 L 180 59 Z M 180 51.34375 " clip-rule="nonzero"/></clipPath><clipPath id="361935543c"><path d="M 180 61 L 182 61 L 182 68.59375 L 180 68.59375 Z M 180 61 " clip-rule="nonzero"/></clipPath><clipPath id="8eaceeb711"><path d="M 183 59 L 189.875 59 L 189.875 61 L 183 61 Z M 183 59 " clip-rule="nonzero"/></clipPath><clipPath id="3315481699"><path d="M 172.625 59 L 180 59 L 180 61 L 172.625 61 Z M 172.625 59 " clip-rule="nonzero"/></clipPath></defs><rect x="-37.5" width="450" fill="#ffffff" y="-37.499999" height="449.999989" fill-opacity="1"/><rect x="-37.5" width="450" fill="#ffffff" y="-37.499999" height="449.999989" fill-opacity="1"/><rect x="-37.5" width="450" fill="#b6cd5b" y="-37.499999" height="449.999989" fill-opacity="1"/><g clip-path="url(#576dccea54)"><path fill="#0c350d" d="M 176.195312 165.339844 L 187.757812 165.339844 C 187.757812 165.339844 182.519531 178.085938 176.195312 165.339844 Z M 176.195312 165.339844 " fill-opacity="1" fill-rule="nonzero"/></g><path fill="#0c350d" d="M 193.703125 165.945312 L 170.148438 165.945312 C 169.164062 165.945312 168.382812 165.140625 168.382812 164.179688 L 168.382812 142.601562 C 168.382812 141.617188 169.1875 140.832031 170.148438 140.832031 L 193.679688 140.832031 C 194.660156 140.832031 195.441406 141.640625 195.441406 142.601562 L 195.441406 164.179688 C 195.46875 165.164062 194.660156 165.945312 193.703125 165.945312 Z M 193.703125 165.945312 " fill-opacity="1" fill-rule="nonzero"/><g clip-path="url(#b2cb0917d5)"><path fill="#eff8d3" d="M 208.695312 120.3125 C 206.832031 123.570312 206.050781 123.417969 203.757812 127.003906 C 200.457031 132.175781 199.121094 137.199219 198.515625 140.582031 L 198.515625 143.03125 C 198.515625 143.03125 198.515625 145.324219 194.511719 145.476562 L 168.988281 145.476562 C 168.988281 145.476562 164.832031 145.90625 164.554688 141.3125 C 164.554688 141.3125 164.554688 133.84375 157.675781 125.363281 C 157.675781 125.363281 144.496094 112.4375 152.082031 93.207031 C 153.289062 90.355469 156.289062 84.5 162.664062 79.804688 C 170.726562 73.847656 179.039062 73.570312 180.753906 73.546875 C 182.339844 73.519531 187.152344 73.570312 192.824219 75.816406 C 194.863281 76.625 206.605469 81.519531 211.015625 93.8125 C 212.425781 97.722656 212.574219 100.980469 212.652344 102.949219 C 212.753906 105.398438 212.980469 112.867188 208.695312 120.3125 Z M 208.695312 120.3125 " fill-opacity="1" fill-rule="nonzero"/></g><path fill="#1f4d00" d="M 195.695312 149.441406 L 168.15625 149.441406 C 166.996094 149.441406 166.089844 148.507812 166.089844 147.371094 C 166.089844 146.210938 167.023438 145.300781 168.15625 145.300781 L 195.667969 145.300781 C 196.828125 145.300781 197.734375 146.234375 197.734375 147.371094 C 197.761719 148.507812 196.828125 149.441406 195.695312 149.441406 Z M 195.695312 149.441406 " fill-opacity="1" fill-rule="nonzero"/><path fill="#1f4d00" d="M 195.695312 156.332031 L 168.15625 156.332031 C 166.996094 156.332031 166.089844 155.398438 166.089844 154.261719 C 166.089844 153.101562 167.023438 152.191406 168.15625 152.191406 L 195.667969 152.191406 C 196.828125 152.191406 197.734375 153.125 197.734375 154.261719 C 197.761719 155.398438 196.828125 156.332031 195.695312 156.332031 Z M 195.695312 156.332031 " fill-opacity="1" fill-rule="nonzero"/><path fill="#1f4d00" d="M 196.300781 163.296875 L 167.652344 163.296875 C 166.820312 163.296875 166.140625 162.613281 166.140625 161.78125 L 166.140625 160.644531 C 166.140625 159.8125 166.820312 159.132812 167.652344 159.132812 L 196.300781 159.132812 C 197.132812 159.132812 197.8125 159.8125 197.8125 160.644531 L 197.8125 161.78125 C 197.8125 162.613281 197.132812 163.296875 196.300781 163.296875 Z M 196.300781 163.296875 " fill-opacity="1" fill-rule="nonzero"/><path fill="#0c350d" d="M 195.214844 95.957031 C 195.972656 90.152344 197.332031 86.71875 197.332031 86.71875 C 197.332031 86.71875 151.730469 99.820312 171.355469 124.25 C 194.082031 129.929688 193.554688 108.804688 195.214844 95.957031 Z M 195.214844 95.957031 " fill-opacity="1" fill-rule="nonzero"/><path fill="#eff8d3" d="M 198.089844 88.738281 C 198.089844 88.738281 195.871094 91.035156 192.773438 94.695312 C 189.671875 98.355469 185.742188 103.378906 182.316406 108.730469 C 180.601562 111.402344 179.015625 114.15625 177.730469 116.804688 C 177.402344 117.460938 177.101562 118.117188 176.796875 118.773438 C 176.496094 119.429688 176.242188 120.0625 175.992188 120.691406 C 175.738281 121.324219 175.511719 121.929688 175.3125 122.535156 C 175.085938 123.140625 174.910156 123.722656 174.757812 124.277344 C 174.582031 124.832031 174.429688 125.363281 174.328125 125.890625 C 174.203125 126.398438 174.078125 126.902344 174 127.355469 C 173.925781 127.808594 173.851562 128.238281 173.773438 128.644531 C 173.722656 129.046875 173.699219 129.398438 173.675781 129.753906 C 173.574219 130.410156 173.625 130.941406 173.597656 131.292969 C 173.597656 131.644531 173.574219 131.847656 173.574219 131.847656 L 171.507812 131.847656 C 171.507812 131.847656 171.53125 131.644531 171.53125 131.242188 C 171.582031 130.863281 171.558594 130.257812 171.683594 129.550781 C 171.734375 129.199219 171.785156 128.792969 171.859375 128.363281 C 171.960938 127.9375 172.035156 127.480469 172.164062 126.976562 C 172.261719 126.472656 172.414062 125.96875 172.566406 125.4375 C 172.714844 124.882812 172.894531 124.328125 173.09375 123.746094 C 173.296875 123.164062 173.496094 122.558594 173.75 121.953125 C 173.976562 121.347656 174.253906 120.71875 174.53125 120.085938 C 174.808594 119.457031 175.109375 118.800781 175.4375 118.144531 C 175.765625 117.488281 176.09375 116.832031 176.472656 116.175781 C 177.90625 113.523438 179.621094 110.796875 181.460938 108.171875 C 185.136719 102.921875 189.296875 98.027344 192.519531 94.519531 C 195.769531 90.933594 198.089844 88.738281 198.089844 88.738281 Z M 198.089844 88.738281 " fill-opacity="1" fill-rule="nonzero"/><g clip-path="url(#46fa044e25)"><path fill="#1f4d00" d="M 132.476562 120.652344 C 132.035156 120.652344 131.675781 120.292969 131.675781 119.84375 L 131.675781 114.566406 C 131.675781 114.117188 132.035156 113.753906 132.476562 113.753906 C 132.921875 113.753906 133.277344 114.117188 133.277344 114.566406 L 133.277344 119.84375 C 133.28125 120.292969 132.921875 120.652344 132.476562 120.652344 Z M 132.476562 120.652344 " fill-opacity="1" fill-rule="nonzero"/></g><g clip-path="url(#c59aefb2d2)"><path fill="#1f4d00" d="M 132.476562 131.003906 C 132.035156 131.003906 131.675781 130.640625 131.675781 130.191406 L 131.675781 124.914062 C 131.675781 124.46875 132.035156 124.105469 132.476562 124.105469 C 132.921875 124.105469 133.277344 124.46875 133.277344 124.914062 L 133.277344 130.191406 C 133.28125 130.636719 132.921875 131.003906 132.476562 131.003906 Z M 132.476562 131.003906 " fill-opacity="1" fill-rule="nonzero"/></g><g clip-path="url(#12da646157)"><path fill="#1f4d00" d="M 141.304688 122.480469 C 141.304688 122.929688 140.945312 123.289062 140.503906 123.289062 L 135.285156 123.289062 C 134.84375 123.289062 134.484375 122.929688 134.484375 122.480469 C 134.484375 122.03125 134.84375 121.667969 135.285156 121.667969 L 140.503906 121.667969 C 140.945312 121.667969 141.304688 122.03125 141.304688 122.480469 Z M 141.304688 122.480469 " fill-opacity="1" fill-rule="nonzero"/></g><g clip-path="url(#7c1f3ec996)"><path fill="#1f4d00" d="M 130.875 122.480469 C 130.875 122.929688 130.515625 123.289062 130.074219 123.289062 L 124.855469 123.289062 C 124.410156 123.289062 124.054688 122.929688 124.054688 122.480469 C 124.054688 122.03125 124.410156 121.667969 124.855469 121.667969 L 130.074219 121.667969 C 130.515625 121.667969 130.875 122.03125 130.875 122.480469 Z M 130.875 122.480469 " fill-opacity="1" fill-rule="nonzero"/></g><g fill="#1f4d00" fill-opacity="1"><g transform="translate(120.206868, 206.491906)"><g><path d="M 8.714844 -6.003906 L 2.75 -13.070312 C 3.332031 -13.492188 4.136719 -13.753906 5.140625 -13.753906 C 6.726562 -13.753906 8.230469 -12.589844 8.230469 -11.425781 L 8.230469 -11.101562 C 8.230469 -10.941406 8.371094 -10.800781 8.53125 -10.800781 C 8.695312 -10.800781 8.835938 -10.941406 8.835938 -11.101562 L 8.835938 -14.054688 C 8.835938 -14.214844 8.695312 -14.335938 8.53125 -14.335938 C 8.371094 -14.335938 8.230469 -14.214844 8.230469 -14.054688 L 8.230469 -12.949219 C 7.527344 -13.792969 6.324219 -14.355469 5.140625 -14.355469 C 2.671875 -14.355469 1.164062 -12.929688 1.164062 -11.101562 C 1.164062 -10.160156 1.605469 -9.113281 2.449219 -8.109375 L 8.109375 -1.367188 C 7.449219 -0.722656 6.464844 -0.300781 5.261719 -0.300781 C 3.253906 -0.300781 1.464844 -1.566406 1.464844 -2.972656 L 1.464844 -3.535156 C 1.464844 -3.695312 1.324219 -3.816406 1.164062 -3.816406 C 1.003906 -3.816406 0.863281 -3.695312 0.863281 -3.535156 L 0.863281 0 C 0.863281 0.160156 1.003906 0.28125 1.164062 0.28125 C 1.324219 0.28125 1.464844 0.160156 1.464844 0 L 1.464844 -1.34375 C 2.289062 -0.320312 3.835938 0.300781 5.261719 0.300781 C 7.910156 0.300781 9.65625 -1.527344 9.65625 -3.535156 C 9.65625 -4.375 9.375 -5.21875 8.714844 -6.003906 Z M 1.765625 -11.101562 C 1.765625 -11.683594 1.96875 -12.226562 2.308594 -12.667969 L 8.25 -5.621094 C 8.792969 -4.980469 9.054688 -4.238281 9.054688 -3.535156 C 9.054688 -2.929688 8.855469 -2.328125 8.511719 -1.828125 L 2.910156 -8.492188 C 2.167969 -9.394531 1.765625 -10.28125 1.765625 -11.101562 Z M 1.765625 -11.101562 "/></g></g></g><g fill="#1f4d00" fill-opacity="1"><g transform="translate(130.524998, 206.491906)"><g><path d="M 13.792969 -14.054688 L 8.714844 -14.054688 C 8.554688 -14.054688 8.390625 -13.953125 8.390625 -13.792969 C 8.390625 -13.632812 8.554688 -13.492188 8.714844 -13.492188 L 9.636719 -13.492188 L 9.636719 -0.863281 C 8.953125 -0.5 8.171875 -0.300781 7.347656 -0.300781 C 6.523438 -0.300781 5.742188 -0.5 5.058594 -0.863281 L 5.058594 -13.492188 L 5.984375 -13.492188 C 6.144531 -13.492188 6.265625 -13.613281 6.265625 -13.773438 C 6.265625 -13.933594 6.144531 -14.054688 5.984375 -14.054688 L 0.78125 -14.054688 C 0.621094 -14.054688 0.5 -13.933594 0.5 -13.773438 C 0.5 -13.613281 0.621094 -13.492188 0.78125 -13.492188 L 1.726562 -13.492188 L 1.726562 -5.300781 C 1.726562 -2.207031 4.257812 0.300781 7.347656 0.300781 C 10.441406 0.300781 12.96875 -2.207031 12.96875 -5.300781 L 12.96875 -13.492188 L 13.792969 -13.492188 C 13.933594 -13.492188 14.074219 -13.632812 14.074219 -13.792969 C 14.074219 -13.953125 13.933594 -14.054688 13.792969 -14.054688 Z M 2.328125 -5.300781 L 2.328125 -13.492188 L 4.457031 -13.492188 L 4.457031 -1.226562 C 3.171875 -2.128906 2.328125 -3.613281 2.328125 -5.300781 Z M 12.367188 -13.492188 L 12.367188 -5.300781 C 12.367188 -3.613281 11.523438 -2.128906 10.238281 -1.226562 L 10.238281 -13.492188 Z M 12.367188 -13.492188 "/></g></g></g><g fill="#1f4d00" fill-opacity="1"><g transform="translate(145.098853, 206.491906)"><g><path d="M 8.714844 -6.003906 L 2.75 -13.070312 C 3.332031 -13.492188 4.136719 -13.753906 5.140625 -13.753906 C 6.726562 -13.753906 8.230469 -12.589844 8.230469 -11.425781 L 8.230469 -11.101562 C 8.230469 -10.941406 8.371094 -10.800781 8.53125 -10.800781 C 8.695312 -10.800781 8.835938 -10.941406 8.835938 -11.101562 L 8.835938 -14.054688 C 8.835938 -14.214844 8.695312 -14.335938 8.53125 -14.335938 C 8.371094 -14.335938 8.230469 -14.214844 8.230469 -14.054688 L 8.230469 -12.949219 C 7.527344 -13.792969 6.324219 -14.355469 5.140625 -14.355469 C 2.671875 -14.355469 1.164062 -12.929688 1.164062 -11.101562 C 1.164062 -10.160156 1.605469 -9.113281 2.449219 -8.109375 L 8.109375 -1.367188 C 7.449219 -0.722656 6.464844 -0.300781 5.261719 -0.300781 C 3.253906 -0.300781 1.464844 -1.566406 1.464844 -2.972656 L 1.464844 -3.535156 C 1.464844 -3.695312 1.324219 -3.816406 1.164062 -3.816406 C 1.003906 -3.816406 0.863281 -3.695312 0.863281 -3.535156 L 0.863281 0 C 0.863281 0.160156 1.003906 0.28125 1.164062 0.28125 C 1.324219 0.28125 1.464844 0.160156 1.464844 0 L 1.464844 -1.34375 C 2.289062 -0.320312 3.835938 0.300781 5.261719 0.300781 C 7.910156 0.300781 9.65625 -1.527344 9.65625 -3.535156 C 9.65625 -4.375 9.375 -5.21875 8.714844 -6.003906 Z M 1.765625 -11.101562 C 1.765625 -11.683594 1.96875 -12.226562 2.308594 -12.667969 L 8.25 -5.621094 C 8.792969 -4.980469 9.054688 -4.238281 9.054688 -3.535156 C 9.054688 -2.929688 8.855469 -2.328125 8.511719 -1.828125 L 2.910156 -8.492188 C 2.167969 -9.394531 1.765625 -10.28125 1.765625 -11.101562 Z M 1.765625 -11.101562 "/></g></g></g><g fill="#1f4d00" fill-opacity="1"><g transform="translate(155.416983, 206.491906)"><g><path d="M 10.882812 -14.054688 L 0.363281 -14.054688 C 0.199219 -14.054688 0.0585938 -13.933594 0.0585938 -13.773438 L 0.0585938 -11.304688 C 0.0585938 -11.144531 0.199219 -11.003906 0.363281 -11.003906 C 0.542969 -11.003906 0.664062 -11.144531 0.664062 -11.304688 L 0.664062 -13.492188 L 4.015625 -13.492188 L 4.015625 -0.5625 L 2.910156 -0.5625 C 2.75 -0.5625 2.609375 -0.441406 2.609375 -0.28125 C 2.609375 -0.121094 2.75 0 2.910156 0 L 8.292969 0 C 8.433594 0 8.574219 -0.121094 8.574219 -0.28125 C 8.574219 -0.441406 8.433594 -0.5625 8.292969 -0.5625 L 7.148438 -0.5625 L 7.148438 -13.492188 L 10.582031 -13.492188 L 10.582031 -11.304688 C 10.582031 -11.144531 10.722656 -11.003906 10.882812 -11.003906 C 11.042969 -11.003906 11.183594 -11.144531 11.183594 -11.304688 L 11.183594 -13.773438 C 11.183594 -13.933594 11.042969 -14.054688 10.882812 -14.054688 Z M 6.546875 -13.492188 L 6.546875 -0.5625 L 4.617188 -0.5625 L 4.617188 -13.492188 Z M 6.546875 -13.492188 "/></g></g></g><g fill="#1f4d00" fill-opacity="1"><g transform="translate(166.658525, 206.491906)"><g><path d="M 10.480469 -3.171875 C 10.339844 -3.171875 10.179688 -3.070312 10.179688 -2.871094 L 10.179688 -0.5625 L 5.460938 -0.5625 L 5.460938 -7.027344 L 9.457031 -7.027344 L 9.457031 -6.003906 C 9.457031 -5.824219 9.597656 -5.722656 9.777344 -5.722656 C 9.917969 -5.722656 10.058594 -5.824219 10.058594 -6.003906 L 10.058594 -8.695312 C 10.058594 -8.875 9.898438 -8.976562 9.757812 -8.976562 C 9.597656 -8.976562 9.457031 -8.875 9.457031 -8.695312 L 9.457031 -7.589844 L 5.460938 -7.589844 L 5.460938 -13.492188 L 10.039062 -13.492188 L 10.039062 -11.484375 C 10.039062 -11.304688 10.199219 -11.203125 10.339844 -11.203125 C 10.480469 -11.203125 10.640625 -11.304688 10.640625 -11.484375 L 10.640625 -13.773438 C 10.640625 -13.933594 10.519531 -14.054688 10.339844 -14.054688 L 1.484375 -14.054688 C 1.304688 -14.054688 1.203125 -13.914062 1.203125 -13.773438 C 1.203125 -13.613281 1.304688 -13.492188 1.484375 -13.492188 L 2.328125 -13.492188 L 2.328125 -0.5625 L 1.386719 -0.5625 C 1.203125 -0.5625 1.105469 -0.441406 1.105469 -0.28125 C 1.105469 -0.140625 1.203125 0 1.386719 0 L 10.480469 0 C 10.640625 0 10.78125 -0.121094 10.78125 -0.28125 L 10.78125 -2.871094 C 10.78125 -3.070312 10.621094 -3.171875 10.480469 -3.171875 Z M 2.929688 -0.5625 L 2.929688 -13.492188 L 4.859375 -13.492188 L 4.859375 -0.5625 Z M 2.929688 -0.5625 "/></g></g></g><g fill="#1f4d00" fill-opacity="1"><g transform="translate(178.24133, 206.491906)"><g><path d="M 13.492188 -14.054688 L 10.199219 -14.054688 C 10.019531 -14.054688 9.898438 -13.933594 9.898438 -13.773438 C 9.898438 -13.613281 10.019531 -13.492188 10.199219 -13.492188 L 11.523438 -13.492188 L 11.523438 -5.199219 L 5.460938 -13.972656 C 5.421875 -14.035156 5.339844 -14.054688 5.28125 -14.054688 L 0.984375 -14.054688 C 0.84375 -14.054688 0.722656 -13.953125 0.722656 -13.773438 C 0.722656 -13.613281 0.84375 -13.492188 0.984375 -13.492188 L 2.089844 -13.492188 L 2.089844 -0.5625 L 0.824219 -0.5625 C 0.683594 -0.5625 0.542969 -0.441406 0.542969 -0.28125 C 0.542969 -0.101562 0.683594 0 0.824219 0 L 4.515625 0 C 4.679688 0 4.820312 -0.101562 4.820312 -0.28125 C 4.820312 -0.441406 4.679688 -0.5625 4.515625 -0.5625 L 2.691406 -0.5625 L 2.691406 -12.507812 L 11.304688 -0.0820312 C 11.484375 0.179688 11.664062 0.300781 11.847656 0.300781 C 12.027344 0.300781 12.125 0.0820312 12.125 -0.300781 L 12.125 -13.492188 L 13.492188 -13.492188 C 13.652344 -13.492188 13.773438 -13.613281 13.773438 -13.773438 C 13.773438 -13.933594 13.652344 -14.054688 13.492188 -14.054688 Z M 11.523438 -0.804688 L 2.730469 -13.492188 L 5.078125 -13.492188 L 11.523438 -4.175781 Z M 11.523438 -0.804688 "/></g></g></g><g fill="#1f4d00" fill-opacity="1"><g transform="translate(192.554225, 206.491906)"><g><path d="M 10.882812 -14.054688 L 0.363281 -14.054688 C 0.199219 -14.054688 0.0585938 -13.933594 0.0585938 -13.773438 L 0.0585938 -11.304688 C 0.0585938 -11.144531 0.199219 -11.003906 0.363281 -11.003906 C 0.542969 -11.003906 0.664062 -11.144531 0.664062 -11.304688 L 0.664062 -13.492188 L 4.015625 -13.492188 L 4.015625 -0.5625 L 2.910156 -0.5625 C 2.75 -0.5625 2.609375 -0.441406 2.609375 -0.28125 C 2.609375 -0.121094 2.75 0 2.910156 0 L 8.292969 0 C 8.433594 0 8.574219 -0.121094 8.574219 -0.28125 C 8.574219 -0.441406 8.433594 -0.5625 8.292969 -0.5625 L 7.148438 -0.5625 L 7.148438 -13.492188 L 10.582031 -13.492188 L 10.582031 -11.304688 C 10.582031 -11.144531 10.722656 -11.003906 10.882812 -11.003906 C 11.042969 -11.003906 11.183594 -11.144531 11.183594 -11.304688 L 11.183594 -13.773438 C 11.183594 -13.933594 11.042969 -14.054688 10.882812 -14.054688 Z M 6.546875 -13.492188 L 6.546875 -0.5625 L 4.617188 -0.5625 L 4.617188 -13.492188 Z M 6.546875 -13.492188 "/></g></g></g><g fill="#1f4d00" fill-opacity="1"><g transform="translate(203.795767, 206.491906)"><g><path d="M 6.847656 -15.019531 L 9.515625 -17.246094 C 9.675781 -17.386719 9.699219 -17.566406 9.578125 -17.707031 C 9.4375 -17.867188 9.253906 -17.890625 9.09375 -17.726562 L 6.546875 -15.339844 C 6.445312 -15.238281 6.363281 -15.117188 6.484375 -14.996094 C 6.605469 -14.878906 6.726562 -14.917969 6.847656 -15.019531 Z M 14.09375 -0.5625 L 13.269531 -0.5625 L 9.195312 -13.792969 C 9.136719 -13.972656 9.015625 -14.054688 8.855469 -14.054688 L 4.457031 -14.054688 C 4.316406 -14.054688 4.195312 -13.933594 4.195312 -13.773438 C 4.195312 -13.613281 4.316406 -13.492188 4.457031 -13.492188 L 5.621094 -13.492188 L 1.445312 -0.5625 L 0.320312 -0.5625 C 0.179688 -0.5625 0.0585938 -0.421875 0.0585938 -0.28125 C 0.0585938 -0.121094 0.179688 0 0.320312 0 L 3.414062 0 C 3.554688 0 3.675781 -0.121094 3.675781 -0.28125 C 3.675781 -0.421875 3.554688 -0.5625 3.414062 -0.5625 L 2.066406 -0.5625 L 3.171875 -3.976562 L 8.996094 -3.976562 L 10.058594 -0.5625 L 8.933594 -0.5625 C 8.792969 -0.5625 8.671875 -0.421875 8.671875 -0.28125 C 8.671875 -0.121094 8.792969 0 8.933594 0 L 14.09375 0 C 14.234375 0 14.355469 -0.121094 14.355469 -0.28125 C 14.355469 -0.421875 14.234375 -0.5625 14.09375 -0.5625 Z M 10.679688 -0.5625 L 6.707031 -13.492188 L 8.671875 -13.492188 L 12.648438 -0.5625 Z M 8.835938 -4.539062 L 3.351562 -4.539062 L 6.164062 -13.191406 Z M 8.835938 -4.539062 "/></g></g></g><g fill="#1f4d00" fill-opacity="1"><g transform="translate(218.269258, 206.491906)"><g><path d="M 13.832031 -14.054688 L 10.722656 -14.054688 C 10.582031 -14.054688 10.441406 -13.953125 10.441406 -13.792969 C 10.441406 -13.632812 10.582031 -13.492188 10.722656 -13.492188 L 12.085938 -13.492188 L 8.511719 -4.355469 L 4.699219 -13.472656 L 5.519531 -13.472656 C 5.683594 -13.472656 5.800781 -13.613281 5.800781 -13.773438 C 5.800781 -13.914062 5.683594 -14.035156 5.519531 -14.035156 L 0.402344 -14.035156 C 0.222656 -14.035156 0.101562 -13.933594 0.101562 -13.773438 C 0.101562 -13.59375 0.222656 -13.472656 0.402344 -13.472656 L 1.203125 -13.472656 L 6.867188 0.121094 C 6.925781 0.242188 7.027344 0.300781 7.148438 0.300781 C 7.269531 0.300781 7.367188 0.242188 7.410156 0.121094 L 12.710938 -13.492188 L 13.832031 -13.492188 C 14.015625 -13.492188 14.132812 -13.632812 14.132812 -13.792969 C 14.132812 -13.953125 14.015625 -14.054688 13.832031 -14.054688 Z M 8.191406 -3.535156 L 7.128906 -0.824219 L 1.867188 -13.472656 L 4.035156 -13.472656 Z M 8.191406 -3.535156 "/></g></g></g><g fill="#1f4d00" fill-opacity="1"><g transform="translate(232.461705, 206.491906)"><g><path d="M 10.480469 -3.171875 C 10.339844 -3.171875 10.179688 -3.070312 10.179688 -2.871094 L 10.179688 -0.5625 L 5.460938 -0.5625 L 5.460938 -7.027344 L 9.457031 -7.027344 L 9.457031 -6.003906 C 9.457031 -5.824219 9.597656 -5.722656 9.777344 -5.722656 C 9.917969 -5.722656 10.058594 -5.824219 10.058594 -6.003906 L 10.058594 -8.695312 C 10.058594 -8.875 9.898438 -8.976562 9.757812 -8.976562 C 9.597656 -8.976562 9.457031 -8.875 9.457031 -8.695312 L 9.457031 -7.589844 L 5.460938 -7.589844 L 5.460938 -13.492188 L 10.039062 -13.492188 L 10.039062 -11.484375 C 10.039062 -11.304688 10.199219 -11.203125 10.339844 -11.203125 C 10.480469 -11.203125 10.640625 -11.304688 10.640625 -11.484375 L 10.640625 -13.773438 C 10.640625 -13.933594 10.519531 -14.054688 10.339844 -14.054688 L 1.484375 -14.054688 C 1.304688 -14.054688 1.203125 -13.914062 1.203125 -13.773438 C 1.203125 -13.613281 1.304688 -13.492188 1.484375 -13.492188 L 2.328125 -13.492188 L 2.328125 -0.5625 L 1.386719 -0.5625 C 1.203125 -0.5625 1.105469 -0.441406 1.105469 -0.28125 C 1.105469 -0.140625 1.203125 0 1.386719 0 L 10.480469 0 C 10.640625 0 10.78125 -0.121094 10.78125 -0.28125 L 10.78125 -2.871094 C 10.78125 -3.070312 10.621094 -3.171875 10.480469 -3.171875 Z M 2.929688 -0.5625 L 2.929688 -13.492188 L 4.859375 -13.492188 L 4.859375 -0.5625 Z M 2.929688 -0.5625 "/></g></g></g><g fill="#1f4d00" fill-opacity="1"><g transform="translate(244.04451, 206.491906)"><g><path d="M 10.359375 -3.191406 C 10.199219 -3.191406 10.058594 -3.070312 10.058594 -2.929688 L 10.058594 -0.5625 L 5.359375 -0.5625 L 5.359375 -13.492188 L 6.363281 -13.492188 C 6.503906 -13.492188 6.644531 -13.613281 6.644531 -13.773438 C 6.644531 -13.933594 6.503906 -14.054688 6.363281 -14.054688 L 1.503906 -14.054688 C 1.367188 -14.054688 1.246094 -13.933594 1.246094 -13.773438 C 1.246094 -13.613281 1.367188 -13.492188 1.503906 -13.492188 L 2.230469 -13.492188 L 2.230469 -0.5625 L 1.386719 -0.5625 C 1.226562 -0.5625 1.105469 -0.421875 1.105469 -0.28125 C 1.105469 -0.101562 1.226562 0 1.386719 0 L 10.378906 0 C 10.539062 0 10.660156 -0.101562 10.660156 -0.28125 L 10.660156 -2.929688 C 10.660156 -3.070312 10.519531 -3.191406 10.359375 -3.191406 Z M 2.832031 -0.5625 L 2.832031 -13.492188 L 4.757812 -13.492188 L 4.757812 -0.5625 Z M 2.832031 -0.5625 "/></g></g></g><g fill="#000000" fill-opacity="1"><g transform="translate(108.117802, 222.386331)"><g><path d="M 7.53125 -8.4375 L 7.53125 -2.96875 C 7.53125 -2.007812 7.238281 -1.253906 6.65625 -0.703125 C 6.070312 -0.160156 5.273438 0.109375 4.265625 0.109375 C 3.242188 0.109375 2.457031 -0.164062 1.90625 -0.71875 C 1.351562 -1.269531 1.078125 -2.03125 1.078125 -3 L 1.078125 -8.4375 L 2.046875 -8.4375 L 2.046875 -2.9375 C 2.046875 -2.226562 2.238281 -1.6875 2.625 -1.3125 C 3.007812 -0.9375 3.578125 -0.75 4.328125 -0.75 C 5.035156 -0.75 5.582031 -0.9375 5.96875 -1.3125 C 6.351562 -1.6875 6.546875 -2.226562 6.546875 -2.9375 L 6.546875 -8.4375 Z M 7.53125 -8.4375 "/></g></g></g><g fill="#000000" fill-opacity="1"><g transform="translate(116.717302, 222.386331)"><g><path d="M 4.890625 0 L 2.03125 -7.46875 L 1.984375 -7.46875 C 2.035156 -6.882812 2.0625 -6.179688 2.0625 -5.359375 L 2.0625 0 L 1.15625 0 L 1.15625 -8.4375 L 2.640625 -8.4375 L 5.3125 -1.484375 L 5.359375 -1.484375 L 8.046875 -8.4375 L 9.515625 -8.4375 L 9.515625 0 L 8.53125 0 L 8.53125 -5.4375 C 8.53125 -6.0625 8.554688 -6.738281 8.609375 -7.46875 L 8.5625 -7.46875 L 5.6875 0 Z M 4.890625 0 "/></g></g></g><g fill="#000000" fill-opacity="1"><g transform="translate(127.381604, 222.386331)"><g><path d="M 6.453125 0 L 5.40625 -2.6875 L 2.03125 -2.6875 L 0.984375 0 L 0 0 L 3.328125 -8.46875 L 4.15625 -8.46875 L 7.46875 0 Z M 5.109375 -3.5625 L 4.125 -6.171875 C 4 -6.503906 3.867188 -6.910156 3.734375 -7.390625 C 3.648438 -7.023438 3.53125 -6.617188 3.375 -6.171875 L 2.375 -3.5625 Z M 5.109375 -3.5625 "/></g></g></g><g fill="#000000" fill-opacity="1"><g transform="translate(134.856416, 222.386331)"><g/></g></g><g fill="#000000" fill-opacity="1"><g transform="translate(137.92478, 222.386331)"><g><path d="M 5.96875 -8.4375 L 7.03125 -8.4375 L 3.984375 0 L 3.015625 0 L 0 -8.4375 L 1.03125 -8.4375 L 2.96875 -2.96875 C 3.195312 -2.34375 3.375 -1.734375 3.5 -1.140625 C 3.644531 -1.765625 3.828125 -2.390625 4.046875 -3.015625 Z M 5.96875 -8.4375 "/></g></g></g><g fill="#000000" fill-opacity="1"><g transform="translate(144.955493, 222.386331)"><g><path d="M 1.15625 0 L 1.15625 -8.4375 L 2.140625 -8.4375 L 2.140625 0 Z M 1.15625 0 "/></g></g></g><g fill="#000000" fill-opacity="1"><g transform="translate(148.2488, 222.386331)"><g><path d="M 7.890625 -4.296875 C 7.890625 -2.898438 7.507812 -1.832031 6.75 -1.09375 C 6 -0.363281 4.914062 0 3.5 0 L 1.15625 0 L 1.15625 -8.4375 L 3.75 -8.4375 C 5.050781 -8.4375 6.066406 -8.070312 6.796875 -7.34375 C 7.523438 -6.613281 7.890625 -5.597656 7.890625 -4.296875 Z M 6.859375 -4.265625 C 6.859375 -5.359375 6.582031 -6.179688 6.03125 -6.734375 C 5.476562 -7.296875 4.65625 -7.578125 3.5625 -7.578125 L 2.140625 -7.578125 L 2.140625 -0.84375 L 3.328125 -0.84375 C 4.503906 -0.84375 5.382812 -1.128906 5.96875 -1.703125 C 6.5625 -2.285156 6.859375 -3.140625 6.859375 -4.265625 Z M 6.859375 -4.265625 "/></g></g></g><g fill="#000000" fill-opacity="1"><g transform="translate(156.859835, 222.386331)"><g><path d="M 6.453125 0 L 5.40625 -2.6875 L 2.03125 -2.6875 L 0.984375 0 L 0 0 L 3.328125 -8.46875 L 4.15625 -8.46875 L 7.46875 0 Z M 5.109375 -3.5625 L 4.125 -6.171875 C 4 -6.503906 3.867188 -6.910156 3.734375 -7.390625 C 3.648438 -7.023438 3.53125 -6.617188 3.375 -6.171875 L 2.375 -3.5625 Z M 5.109375 -3.5625 "/></g></g></g><g fill="#000000" fill-opacity="1"><g transform="translate(164.334647, 222.386331)"><g/></g></g><g fill="#000000" fill-opacity="1"><g transform="translate(167.403011, 222.386331)"><g><path d="M 4.890625 0 L 2.03125 -7.46875 L 1.984375 -7.46875 C 2.035156 -6.882812 2.0625 -6.179688 2.0625 -5.359375 L 2.0625 0 L 1.15625 0 L 1.15625 -8.4375 L 2.640625 -8.4375 L 5.3125 -1.484375 L 5.359375 -1.484375 L 8.046875 -8.4375 L 9.515625 -8.4375 L 9.515625 0 L 8.53125 0 L 8.53125 -5.4375 C 8.53125 -6.0625 8.554688 -6.738281 8.609375 -7.46875 L 8.5625 -7.46875 L 5.6875 0 Z M 4.890625 0 "/></g></g></g><g fill="#000000" fill-opacity="1"><g transform="translate(178.067313, 222.386331)"><g><path d="M 6.453125 0 L 5.40625 -2.6875 L 2.03125 -2.6875 L 0.984375 0 L 0 0 L 3.328125 -8.46875 L 4.15625 -8.46875 L 7.46875 0 Z M 5.109375 -3.5625 L 4.125 -6.171875 C 4 -6.503906 3.867188 -6.910156 3.734375 -7.390625 C 3.648438 -7.023438 3.53125 -6.617188 3.375 -6.171875 L 2.375 -3.5625 Z M 5.109375 -3.5625 "/></g></g></g><g fill="#000000" fill-opacity="1"><g transform="translate(185.542124, 222.386331)"><g><path d="M 1.15625 0 L 1.15625 -8.4375 L 2.140625 -8.4375 L 2.140625 0 Z M 1.15625 0 "/></g></g></g><g fill="#000000" fill-opacity="1"><g transform="translate(188.835431, 222.386331)"><g><path d="M 5.921875 -2.25 C 5.921875 -1.5 5.648438 -0.914062 5.109375 -0.5 C 4.566406 -0.09375 3.835938 0.109375 2.921875 0.109375 C 1.921875 0.109375 1.148438 -0.015625 0.609375 -0.265625 L 0.609375 -1.21875 C 0.953125 -1.070312 1.328125 -0.957031 1.734375 -0.875 C 2.148438 -0.789062 2.554688 -0.75 2.953125 -0.75 C 3.609375 -0.75 4.097656 -0.867188 4.421875 -1.109375 C 4.753906 -1.359375 4.921875 -1.707031 4.921875 -2.15625 C 4.921875 -2.445312 4.863281 -2.6875 4.75 -2.875 C 4.632812 -3.0625 4.4375 -3.234375 4.15625 -3.390625 C 3.882812 -3.546875 3.46875 -3.722656 2.90625 -3.921875 C 2.125 -4.203125 1.5625 -4.535156 1.21875 -4.921875 C 0.882812 -5.304688 0.71875 -5.804688 0.71875 -6.421875 C 0.71875 -7.078125 0.960938 -7.59375 1.453125 -7.96875 C 1.941406 -8.351562 2.585938 -8.546875 3.390625 -8.546875 C 4.234375 -8.546875 5.003906 -8.394531 5.703125 -8.09375 L 5.40625 -7.234375 C 4.707031 -7.523438 4.03125 -7.671875 3.375 -7.671875 C 2.851562 -7.671875 2.445312 -7.5625 2.15625 -7.34375 C 1.863281 -7.125 1.71875 -6.8125 1.71875 -6.40625 C 1.71875 -6.113281 1.769531 -5.875 1.875 -5.6875 C 1.976562 -5.507812 2.15625 -5.34375 2.40625 -5.1875 C 2.664062 -5.03125 3.0625 -4.859375 3.59375 -4.671875 C 4.476562 -4.347656 5.085938 -4.003906 5.421875 -3.640625 C 5.753906 -3.285156 5.921875 -2.820312 5.921875 -2.25 Z M 5.921875 -2.25 "/></g></g></g><g fill="#000000" fill-opacity="1"><g transform="translate(195.318215, 222.386331)"><g/></g></g><g fill="#000000" fill-opacity="1"><g transform="translate(198.386579, 222.386331)"><g><path d="M 1.15625 0 L 1.15625 -8.4375 L 2.140625 -8.4375 L 2.140625 0 Z M 1.15625 0 "/></g></g></g><g fill="#000000" fill-opacity="1"><g transform="translate(201.679886, 222.386331)"><g><path d="M 7.75 0 L 6.625 0 L 2.015625 -7.078125 L 1.96875 -7.078125 C 2.03125 -6.242188 2.0625 -5.484375 2.0625 -4.796875 L 2.0625 0 L 1.15625 0 L 1.15625 -8.4375 L 2.265625 -8.4375 L 6.859375 -1.390625 L 6.90625 -1.390625 C 6.894531 -1.492188 6.875 -1.828125 6.84375 -2.390625 C 6.820312 -2.953125 6.816406 -3.351562 6.828125 -3.59375 L 6.828125 -8.4375 L 7.75 -8.4375 Z M 7.75 0 "/></g></g></g><g fill="#000000" fill-opacity="1"><g transform="translate(210.585063, 222.386331)"><g><path d="M 8.484375 -4.234375 C 8.484375 -2.878906 8.140625 -1.816406 7.453125 -1.046875 C 6.773438 -0.273438 5.828125 0.109375 4.609375 0.109375 C 3.367188 0.109375 2.410156 -0.265625 1.734375 -1.015625 C 1.054688 -1.773438 0.71875 -2.847656 0.71875 -4.234375 C 0.71875 -5.609375 1.054688 -6.671875 1.734375 -7.421875 C 2.410156 -8.179688 3.375 -8.5625 4.625 -8.5625 C 5.832031 -8.5625 6.773438 -8.175781 7.453125 -7.40625 C 8.140625 -6.644531 8.484375 -5.585938 8.484375 -4.234375 Z M 1.765625 -4.234375 C 1.765625 -3.085938 2.003906 -2.21875 2.484375 -1.625 C 2.972656 -1.039062 3.679688 -0.75 4.609375 -0.75 C 5.546875 -0.75 6.25 -1.039062 6.71875 -1.625 C 7.195312 -2.21875 7.4375 -3.085938 7.4375 -4.234375 C 7.4375 -5.359375 7.195312 -6.210938 6.71875 -6.796875 C 6.25 -7.390625 5.550781 -7.6875 4.625 -7.6875 C 3.6875 -7.6875 2.972656 -7.390625 2.484375 -6.796875 C 2.003906 -6.210938 1.765625 -5.359375 1.765625 -4.234375 Z M 1.765625 -4.234375 "/></g></g></g><g fill="#000000" fill-opacity="1"><g transform="translate(219.784394, 222.386331)"><g><path d="M 5.96875 -8.4375 L 7.03125 -8.4375 L 3.984375 0 L 3.015625 0 L 0 -8.4375 L 1.03125 -8.4375 L 2.96875 -2.96875 C 3.195312 -2.34375 3.375 -1.734375 3.5 -1.140625 C 3.644531 -1.765625 3.828125 -2.390625 4.046875 -3.015625 Z M 5.96875 -8.4375 "/></g></g></g><g fill="#000000" fill-opacity="1"><g transform="translate(226.815107, 222.386331)"><g><path d="M 6.453125 0 L 5.40625 -2.6875 L 2.03125 -2.6875 L 0.984375 0 L 0 0 L 3.328125 -8.46875 L 4.15625 -8.46875 L 7.46875 0 Z M 5.109375 -3.5625 L 4.125 -6.171875 C 4 -6.503906 3.867188 -6.910156 3.734375 -7.390625 C 3.648438 -7.023438 3.53125 -6.617188 3.375 -6.171875 L 2.375 -3.5625 Z M 5.109375 -3.5625 "/></g></g></g><g fill="#000000" fill-opacity="1"><g transform="translate(234.289918, 222.386331)"><g><path d="M 7.890625 -4.296875 C 7.890625 -2.898438 7.507812 -1.832031 6.75 -1.09375 C 6 -0.363281 4.914062 0 3.5 0 L 1.15625 0 L 1.15625 -8.4375 L 3.75 -8.4375 C 5.050781 -8.4375 6.066406 -8.070312 6.796875 -7.34375 C 7.523438 -6.613281 7.890625 -5.597656 7.890625 -4.296875 Z M 6.859375 -4.265625 C 6.859375 -5.359375 6.582031 -6.179688 6.03125 -6.734375 C 5.476562 -7.296875 4.65625 -7.578125 3.5625 -7.578125 L 2.140625 -7.578125 L 2.140625 -0.84375 L 3.328125 -0.84375 C 4.503906 -0.84375 5.382812 -1.128906 5.96875 -1.703125 C 6.5625 -2.285156 6.859375 -3.140625 6.859375 -4.265625 Z M 6.859375 -4.265625 "/></g></g></g><g fill="#000000" fill-opacity="1"><g transform="translate(242.900954, 222.386331)"><g><path d="M 8.484375 -4.234375 C 8.484375 -2.878906 8.140625 -1.816406 7.453125 -1.046875 C 6.773438 -0.273438 5.828125 0.109375 4.609375 0.109375 C 3.367188 0.109375 2.410156 -0.265625 1.734375 -1.015625 C 1.054688 -1.773438 0.71875 -2.847656 0.71875 -4.234375 C 0.71875 -5.609375 1.054688 -6.671875 1.734375 -7.421875 C 2.410156 -8.179688 3.375 -8.5625 4.625 -8.5625 C 5.832031 -8.5625 6.773438 -8.175781 7.453125 -7.40625 C 8.140625 -6.644531 8.484375 -5.585938 8.484375 -4.234375 Z M 1.765625 -4.234375 C 1.765625 -3.085938 2.003906 -2.21875 2.484375 -1.625 C 2.972656 -1.039062 3.679688 -0.75 4.609375 -0.75 C 5.546875 -0.75 6.25 -1.039062 6.71875 -1.625 C 7.195312 -2.21875 7.4375 -3.085938 7.4375 -4.234375 C 7.4375 -5.359375 7.195312 -6.210938 6.71875 -6.796875 C 6.25 -7.390625 5.550781 -7.6875 4.625 -7.6875 C 3.6875 -7.6875 2.972656 -7.390625 2.484375 -6.796875 C 2.003906 -6.210938 1.765625 -5.359375 1.765625 -4.234375 Z M 1.765625 -4.234375 "/></g></g></g><g fill="#000000" fill-opacity="1"><g transform="translate(252.100285, 222.386331)"><g><path d="M 2.140625 -3.5 L 2.140625 0 L 1.15625 0 L 1.15625 -8.4375 L 3.46875 -8.4375 C 4.507812 -8.4375 5.273438 -8.238281 5.765625 -7.84375 C 6.253906 -7.445312 6.5 -6.847656 6.5 -6.046875 C 6.5 -4.929688 5.9375 -4.179688 4.8125 -3.796875 L 7.09375 0 L 5.9375 0 L 3.90625 -3.5 Z M 2.140625 -4.34375 L 3.484375 -4.34375 C 4.171875 -4.34375 4.675781 -4.476562 5 -4.75 C 5.320312 -5.03125 5.484375 -5.445312 5.484375 -6 C 5.484375 -6.550781 5.316406 -6.953125 4.984375 -7.203125 C 4.660156 -7.453125 4.140625 -7.578125 3.421875 -7.578125 L 2.140625 -7.578125 Z M 2.140625 -4.34375 "/></g></g></g><g fill="#000000" fill-opacity="1"><g transform="translate(259.402068, 222.386331)"><g><path d="M 6.453125 0 L 5.40625 -2.6875 L 2.03125 -2.6875 L 0.984375 0 L 0 0 L 3.328125 -8.46875 L 4.15625 -8.46875 L 7.46875 0 Z M 5.109375 -3.5625 L 4.125 -6.171875 C 4 -6.503906 3.867188 -6.910156 3.734375 -7.390625 C 3.648438 -7.023438 3.53125 -6.617188 3.375 -6.171875 L 2.375 -3.5625 Z M 5.109375 -3.5625 "/></g></g></g><g clip-path="url(#0eb0ec03b8)"><path fill="#1f4d00" d="M 229.503906 120.652344 C 229.0625 120.652344 228.703125 120.292969 228.703125 119.84375 L 228.703125 114.566406 C 228.703125 114.117188 229.0625 113.753906 229.503906 113.753906 C 229.949219 113.753906 230.308594 114.117188 230.308594 114.566406 L 230.308594 119.84375 C 230.3125 120.292969 229.949219 120.652344 229.503906 120.652344 Z M 229.503906 120.652344 " fill-opacity="1" fill-rule="nonzero"/></g><g clip-path="url(#5e59cb2a80)"><path fill="#1f4d00" d="M 229.503906 131.003906 C 229.0625 131.003906 228.703125 130.640625 228.703125 130.191406 L 228.703125 124.914062 C 228.703125 124.46875 229.0625 124.105469 229.503906 124.105469 C 229.949219 124.105469 230.308594 124.46875 230.308594 124.914062 L 230.308594 130.191406 C 230.3125 130.636719 229.949219 131.003906 229.503906 131.003906 Z M 229.503906 131.003906 " fill-opacity="1" fill-rule="nonzero"/></g><g clip-path="url(#568bc8287f)"><path fill="#1f4d00" d="M 238.332031 122.480469 C 238.332031 122.929688 237.976562 123.289062 237.53125 123.289062 L 232.316406 123.289062 C 231.871094 123.289062 231.511719 122.929688 231.511719 122.480469 C 231.511719 122.03125 231.871094 121.667969 232.316406 121.667969 L 237.53125 121.667969 C 237.976562 121.667969 238.332031 122.03125 238.332031 122.480469 Z M 238.332031 122.480469 " fill-opacity="1" fill-rule="nonzero"/></g><g clip-path="url(#e7db60899f)"><path fill="#1f4d00" d="M 227.902344 122.480469 C 227.902344 122.929688 227.542969 123.289062 227.101562 123.289062 L 221.882812 123.289062 C 221.441406 123.289062 221.082031 122.929688 221.082031 122.480469 C 221.082031 122.03125 221.441406 121.667969 221.882812 121.667969 L 227.101562 121.667969 C 227.542969 121.667969 227.902344 122.03125 227.902344 122.480469 Z M 227.902344 122.480469 " fill-opacity="1" fill-rule="nonzero"/></g><g clip-path="url(#83ddfb44ee)"><path fill="#1f4d00" d="M 181.046875 58.242188 C 180.605469 58.242188 180.246094 57.878906 180.246094 57.429688 L 180.246094 52.152344 C 180.246094 51.707031 180.605469 51.34375 181.046875 51.34375 C 181.492188 51.34375 181.847656 51.707031 181.847656 52.152344 L 181.847656 57.429688 C 181.851562 57.878906 181.492188 58.242188 181.046875 58.242188 Z M 181.046875 58.242188 " fill-opacity="1" fill-rule="nonzero"/></g><g clip-path="url(#361935543c)"><path fill="#1f4d00" d="M 181.046875 68.59375 C 180.605469 68.59375 180.246094 68.230469 180.246094 67.78125 L 180.246094 62.503906 C 180.246094 62.054688 180.605469 61.695312 181.046875 61.695312 C 181.492188 61.695312 181.847656 62.054688 181.847656 62.503906 L 181.847656 67.78125 C 181.851562 68.226562 181.492188 68.59375 181.046875 68.59375 Z M 181.046875 68.59375 " fill-opacity="1" fill-rule="nonzero"/></g><g clip-path="url(#8eaceeb711)"><path fill="#1f4d00" d="M 189.875 60.070312 C 189.875 60.515625 189.515625 60.878906 189.074219 60.878906 L 183.855469 60.878906 C 183.414062 60.878906 183.054688 60.515625 183.054688 60.070312 C 183.054688 59.621094 183.414062 59.257812 183.855469 59.257812 L 189.074219 59.257812 C 189.515625 59.257812 189.875 59.621094 189.875 60.070312 Z M 189.875 60.070312 " fill-opacity="1" fill-rule="nonzero"/></g><g clip-path="url(#3315481699)"><path fill="#1f4d00" d="M 179.445312 60.070312 C 179.445312 60.515625 179.085938 60.878906 178.644531 60.878906 L 173.425781 60.878906 C 172.984375 60.878906 172.625 60.515625 172.625 60.070312 C 172.625 59.621094 172.984375 59.257812 173.425781 59.257812 L 178.644531 59.257812 C 179.085938 59.257812 179.445312 59.621094 179.445312 60.070312 Z M 179.445312 60.070312 " fill-opacity="1" fill-rule="nonzero"/></g></svg>